<?xml version="1.0" encoding="UTF-8"?>
<svg id="Calque_1" xmlns="http://www.w3.org/2000/svg" version="1.1" viewBox="0 0 443.9 372.1">
  <!-- Generator: Adobe Illustrator 29.0.1, SVG Export Plug-In . SVG Version: 2.1.0 Build 192)  -->
  <defs>
    <style>
      .st0 {
        opacity: .2;
        stroke: #000;
        stroke-width: .5px;
      }

      .st0, .st1, .st2 {
        fill: #fff;
      }

      .st0, .st3, .st4 {
        stroke-miterlimit: 10;
      }

      .st0, .st2 {
        isolation: isolate;
      }

      .st3 {
        fill: #ffba05;
        stroke: #fff;
        stroke-width: .2px;
      }

      .st4 {
        fill: #ffe2c3;
        stroke: #8c6239;
        stroke-width: 2px;
      }

      .st2 {
        opacity: .7;
      }
    </style>
  </defs>
  <circle class="st4" cx="222" cy="186" r="185"/>
  <g>
    <path class="st1" d="M278.7,89.2c2.6-1.6,10.8-4.9,11.9-20.5.3-4.9.2.7,0,0-3-9.2-3.9-30-8.8-33-4.1-2.5-8.4-5-13.2-3.9-1.3.3-1.5.6-5.8,2.8-7.1,3.7-10.7,5.5-12.7,5-3-.8-2.3-4-6.4-8.9-1-1.2-6.2-7.3-15-8.9-1.5-.3-6.9-1.2-12.7,1.1-7.9,3.1-7.9,8.6-12.7,8.9-6.2.5-7.8-8.5-16.8-10-6.9-1.1-12.8,3.1-13.9,3.9-5.9,4.3-7.6,10.6-8.1,12.8-1.5,7.5,1.9,12.4-.6,14.2-1.8,1.2-4.2-.6-8-1.4-8.3-1.7-8,.4-11.9,5.6-5.7,7.5-12.9,24.6.4,35.5l134.3-3.2h0Z"/>
    <path class="st3" d="M282.2,80.8c28.5,52.5,27.5,87.9,20.5,110.9-4,13.2-13.4,31.4-14.8,60.3-.6,12.4-1.3,26.4,3.6,43.9,5.8,20.4,13.4,25,10.4,32.3-5.3,12.7-33.5,13-72.9,12.6-44.6-.4-76.3-1-81.2-14.6-3.2-8.9,8.2-14.8,11.6-37.5,1.4-9.3.9-17.5-1.4-31-6.4-36.7-15-45.8-19.4-68.6-9.3-48,11.6-96.3,11.9-96.3,0,0,0,.2,0,.2.2,0,.8-5.7,1.2-6.9,2.6-9.4,53.5-6.2,58.6-5.8,16.9,1.1,41.3,1.9,71.8.6h0Z"/>
    <path class="st1" d="M281.6,105.4c-9,6.6-23.4-7.3-40.6-2.1-20.2,6.1-15.6,29.7-42.6,44.6-6.6,3.6-20,11-29.3,6.7-15.2-7.1-27.3-49.1-27.5-49.1,0,0,0,0-.1,0,0,0,0,0,0,0v-31.6c0,0,0-.1.2-.1h140c0,0,.2,0,.2.1,3.8,10.9,7.6,26.1-.2,31.7h0Z"/>
    <path class="st0" d="M141.9,88.6c9,3,20.4,6.1,33.9,7.9,15.7,2.2,29.4,2,40,1.2,10.2-1.5,20.4-3.1,30.8-4.7,13.2-2.1,26.2-4.3,39-6.5"/>
    <path class="st2" d="M254.7,125.8c2.7-1.4,7-3.1,11.5-2.1,8.4,2,11.7,12.3,14.6,21.2,1.1,3.4,3.4,11.3,3.5,24.8,0,9-.8,16.6-2,23.5-3,17.7-6.5,25.4-9.7,37.8-6.9,26.8-14.2,55.1-1.5,78.8,2.9,5.4,8.2,13.3,5,17.5-2.9,3.8-11.7,4.6-17.5,1.4,0,0-.3-.2-.7-.4-10.4-6.8-13.4-29.8-13.4-29.8-2-14.5-1.3-25.7-1.2-27.5.4-5.6,1.2-14.5,5.8-34.3,7-30.3,11.1-36.6,12-53.9.5-9.9-.4-18.1-1.3-23.4"/>
  </g>
</svg>