<?xml version="1.0" encoding="UTF-8"?>
<svg id="Calque_1" data-name="Calque 1" xmlns="http://www.w3.org/2000/svg" viewBox="0 0 525.52 478.7">
  <defs>
    <style>
      .cls-1 {
        fill: none;
        stroke: #a67d52;
        stroke-width: 2px;
      }

      .cls-1, .cls-2, .cls-3, .cls-4, .cls-5, .cls-6, .cls-7, .cls-8, .cls-9 {
        stroke-miterlimit: 10;
      }

      .cls-2, .cls-10, .cls-11, .cls-6 {
        fill: #fff;
      }

      .cls-2, .cls-3, .cls-4, .cls-5, .cls-6, .cls-8 {
        stroke: #010101;
      }

      .cls-2, .cls-4, .cls-7 {
        stroke-width: .25px;
      }

      .cls-10 {
        opacity: .71;
      }

      .cls-3, .cls-9 {
        fill: #f4e2c3;
      }

      .cls-4, .cls-5 {
        fill: #a67d52;
      }

      .cls-6 {
        opacity: .19;
        stroke-width: .5px;
      }

      .cls-7 {
        fill: #fbb916;
        stroke: #fff;
      }

      .cls-8 {
        fill: #527b2d;
      }

      .cls-9 {
        stroke: #f4e2c3;
        stroke-width: 6px;
      }
    </style>
  </defs>
  <g>
    <path class="cls-3" d="M103.04,257.99h341.56c2.23,0,4.04,1.81,4.04,4.04v88.14c0,2.22-1.81,4.03-4.03,4.03H103.04c-2.22,0-4.03-1.81-4.03-4.03v-88.15c0-2.22,1.81-4.03,4.03-4.03Z"/>
    <ellipse class="cls-9" cx="262.76" cy="245.5" rx="259.76" ry="230.2"/>
    <path class="cls-8" d="M83.72,111.88h108.34c2.23,0,4.04,1.81,4.04,4.04v32.85c0,2.22-1.81,4.03-4.03,4.03h-108.34c-2.22,0-4.03-1.81-4.03-4.03v-32.85c0-2.22,1.81-4.03,4.03-4.03Z"/>
    <path class="cls-11" d="M295.72,67.94c1.2-.73,5.05-2.28,5.53-9.6.15-2.27.11.35,0,0-1.42-4.31-1.83-14.04-4.1-15.39-1.93-1.15-3.94-2.31-6.17-1.84-.6.13-.7.26-2.73,1.32-3.33,1.73-5.02,2.59-5.93,2.34-1.42-.39-1.07-1.86-2.97-4.16-.47-.57-2.92-3.43-7.01-4.16-.71-.13-3.21-.55-5.93.52-3.68,1.44-3.68,4-5.93,4.16-2.91.22-3.65-3.99-7.82-4.68-3.22-.53-5.96,1.45-6.47,1.82-2.78,2.01-3.56,4.95-3.78,5.99-.72,3.5.89,5.79-.29,6.63-.82.58-1.95-.27-3.76-.65-3.87-.81-3.74.19-5.57,2.6-2.67,3.51-6.02,11.52.2,16.58l62.74-1.48Z"/>
    <path class="cls-7" d="M297.34,64c13.33,24.54,12.82,41.06,9.59,51.82-1.85,6.18-6.24,14.66-6.91,28.15-.29,5.78-.61,12.33,1.7,20.51,2.7,9.53,6.26,11.66,4.83,15.1-2.46,5.92-15.66,6.07-34.07,5.89-20.84-.2-35.64-.48-37.93-6.81-1.5-4.15,3.82-6.9,5.44-17.54.66-4.33.44-8.19-.65-14.5-2.97-17.15-7-21.41-9.07-32.06-4.36-22.42,5.42-44.98,5.57-44.97,0,0,0,.09.02.09.09,0,.39-2.65.55-3.24,1.2-4.38,24.97-2.87,27.38-2.72,7.88.49,19.31.9,33.55.28Z"/>
    <ellipse class="cls-1" cx="262.76" cy="245.5" rx="257.87" ry="230.2"/>
    <path class="cls-11" d="M297.09,75.48c-4.21,3.06-10.94-3.41-18.98-.99-9.42,2.84-7.28,13.88-19.88,20.82-3.08,1.69-9.35,5.15-13.7,3.11-7.09-3.31-12.77-22.94-12.84-22.94,0,0-.03,0-.05-.02-.01-.01-.02-.03-.02-.05v-14.74s.03-.07.08-.07h65.4s.08.03.08.07c1.79,5.12,3.53,12.19-.08,14.81Z"/>
    <path class="cls-6" d="M231.84,67.65c4.19,1.41,9.52,2.84,15.82,3.7,7.34,1,13.75.93,18.68.55,4.74-.69,9.54-1.42,14.37-2.19,6.17-.98,12.25-1.99,18.24-3.03"/>
    <path class="cls-10" d="M284.49,85.02c1.26-.66,3.29-1.46,5.39-.97,3.9.92,5.46,5.74,6.81,9.93.51,1.59,1.57,5.29,1.63,11.6.04,4.22-.37,7.73-.91,10.99-1.39,8.25-3.04,11.88-4.53,17.64-3.24,12.52-6.66,25.73-.69,36.82,1.37,2.54,3.84,6.21,2.35,8.18-1.34,1.77-5.47,2.15-8.15.67-.02-.01-.16-.09-.31-.19-4.84-3.18-6.28-13.9-6.28-13.9-.91-6.8-.6-12.02-.54-12.83.17-2.63.58-6.75,2.72-16.04,3.26-14.14,5.21-17.08,5.58-25.16.21-4.63-.21-8.44-.59-10.91"/>
    <path class="cls-8" d="M339.51,111.88h108.34c2.23,0,4.04,1.81,4.04,4.04v32.85c0,2.22-1.81,4.03-4.03,4.03h-108.34c-2.22,0-4.03-1.81-4.03-4.03v-32.85c0-2.22,1.81-4.03,4.03-4.03Z"/>
    <g>
      <path class="cls-5" d="M425.83,224.82c-5.68,9.07-3.29,32.58,7.27,33.31,12.37-5.34,4.71-30.19-7.27-33.31Z"/>
      <path class="cls-5" d="M434.44,203.99c-5.68,9.07-3.29,32.58,7.27,33.31,12.37-5.34,4.71-30.19-7.27-33.31Z"/>
      <path class="cls-5" d="M442.63,182.58c-5.68,9.07-3.29,32.58,7.27,33.31,12.37-5.34,4.71-30.19-7.27-33.31Z"/>
      <path class="cls-5" d="M471.51,167.05c-9.62,4.51-20.97,25.95-12.99,32.59,12.84,2.5,20.75-23.1,12.99-32.59Z"/>
      <path class="cls-5" d="M467.75,240.57c-2.32,10.36-20.98,25.94-29.32,19.51-5.33-12.05,18.21-25.13,29.32-19.51Z"/>
      <path class="cls-5" d="M476.27,219.7c-2.32,10.36-20.98,25.94-29.32,19.51-5.33-12.05,18.21-25.13,29.32-19.51Z"/>
      <path class="cls-5" d="M484.47,198.28c-2.32,10.36-20.98,25.94-29.32,19.51-5.33-12.05,18.21-25.13,29.32-19.51Z"/>
    </g>
    <g>
      <path class="cls-5" d="M68.47,241.36c2.48,10.29,21.27,25.73,29.43,19.32,5.08-11.99-18.51-24.93-29.43-19.32Z"/>
      <path class="cls-5" d="M59.58,220.64c2.48,10.29,21.27,25.73,29.43,19.32,5.08-11.99-18.51-24.93-29.43-19.32Z"/>
      <path class="cls-5" d="M49.96,199.77c2.48,10.29,21.27,25.73,29.43,19.32,5.08-11.99-18.51-24.93-29.43-19.32Z"/>
      <path class="cls-5" d="M59.58,169.58c-3.69,9.58,3.67,32.54,14.26,32.11,11.1-6.62-1.76-30.34-14.26-32.11Z"/>
      <path class="cls-5" d="M110.23,225.23c5.85,9.02,3.66,32.55-7.05,33.37-12.6-5.22-5.07-30.14,7.05-33.37Z"/>
      <path class="cls-5" d="M101.24,204.53c5.85,9.02,3.66,32.55-7.05,33.37-12.6-5.22-5.07-30.14,7.05-33.37Z"/>
      <path class="cls-5" d="M91.62,183.66c5.85,9.02,3.66,32.55-7.05,33.37-12.6-5.22-5.07-30.14,7.05-33.37Z"/>
    </g>
    <path class="cls-8" d="M260.42,380.05c2.23-6.22,2.72-11.36,2.7-15.11-.02-4.08-.67-7.89,1.35-9,1.28-.7,3.43-.22,4.73.96,1.39,1.27,2.14,3.66-1.31,18.19-.69,2.91-1.31,5.29-1.73,6.89l-5.75-1.93Z"/>
    <path class="cls-8" d="M266.53,449.39c-11.6-4.69-18.75-27.55-4.9-34.81,18.94-2.89,19.6,24.49,4.9,34.81Z"/>
    <path class="cls-8" d="M283.66,438.39c-12.51-1.54-25.88-21.71-14.61-32.26,17.42-7.65,25.82,18.54,14.61,32.26Z"/>
    <path class="cls-8" d="M247.99,438.73c12.3-2.65,23.61-23.93,11.34-33.43-18.1-6.05-23.87,20.78-11.34,33.43Z"/>
    <path class="cls-8" d="M265.46,428.64c-11.6-4.69-18.75-27.55-4.9-34.81,18.94-2.89,19.6,24.49,4.9,34.81Z"/>
    <path class="cls-8" d="M291.6,424.73c-12.61.03-28.64-18.3-18.92-30.16,16.21-9.76,28.15,15.17,18.92,30.16Z"/>
    <path class="cls-8" d="M238.33,425.68c12.48-1.7,25.56-22.04,14.14-32.44-17.53-7.42-25.55,18.88-14.14,32.44Z"/>
    <path class="cls-8" d="M296.83,399c-10.12,7.16-34.47,1.48-34.07-13.56,6.94-17.01,32.12-3.72,34.07,13.56Z"/>
    <path class="cls-8" d="M228.69,398.12c9.71,7.66,34.34,3.21,34.78-11.82-5.98-17.34-31.87-5.33-34.78,11.82Z"/>
    <path class="cls-8" d="M265.46,413.19c-11.6-4.69-18.75-27.55-4.9-34.81,18.94-2.89,19.6,24.49,4.9,34.81Z"/>
    <path class="cls-8" d="M195.71,373.47c5.06-4.47,8.06-8.77,9.91-12.09,2.01-3.6,3.35-7.25,5.68-7.32,1.47-.04,3.13,1.36,3.69,2.98.6,1.75.06,4.19-10.22,15.43-2.06,2.25-3.79,4.07-4.96,5.28l-4.1-4.29Z"/>
    <path class="cls-8" d="M166.53,437.28c-7.88-9.36-2.78-32.71,13.03-32.86,18.12,5.99,5.05,30.4-13.03,32.86Z"/>
    <path class="cls-8" d="M187.09,435.32c-10.25-6.99-11.97-30.78,3.21-34.99,19.15,1.11,13.5,27.97-3.21,34.99Z"/>
    <path class="cls-8" d="M155.52,419.53c12.15,3.21,32.71-10.43,26.64-24.32-12.92-13.49-31.37,7.54-26.64,24.32Z"/>
    <path class="cls-8" d="M175.93,418.53c-7.88-9.36-2.78-32.71,13.03-32.86,18.12,5.99,5.05,30.4-13.03,32.86Z"/>
    <path class="cls-8" d="M200.89,426.87c-11.12-5.65-16.1-29.02-1.63-35.09,19.14-1.28,17.23,26.05,1.63,35.09Z"/>
    <path class="cls-8" d="M153.51,403.69c11.84,4.13,33.49-7.89,28.62-22.19-11.73-14.44-31.91,5.1-28.62,22.19Z"/>
    <path class="cls-8" d="M218.32,406.57c-12.48,1.74-31.09-14.24-23.24-27.29,14.59-11.85,30.14,11.2,23.24,27.29Z"/>
    <path class="cls-8" d="M158.76,375.08c4.73,11.12,28.63,18.31,36.51,5.27,3.37-17.96-25.4-19.06-36.51-5.27Z"/>
    <path class="cls-8" d="M183.63,404.93c-7.88-9.36-2.78-32.71,13.03-32.86,18.12,5.99,5.05,30.4-13.03,32.86Z"/>
    <path class="cls-8" d="M327.67,379.56c-1.47-6.42-3.84-11.06-5.9-14.26-2.24-3.48-4.86-6.43-3.73-8.37.71-1.23,2.82-1.87,4.58-1.5,1.88.4,3.82,2.08,8.77,16.21.99,2.83,1.75,5.17,2.26,6.75l-5.97,1.17Z"/>
    <path class="cls-8" d="M370.58,435.91c-12.48,1.69-31.02-14.36-23.12-27.39,14.64-11.79,30.08,11.33,23.12,27.39Z"/>
    <path class="cls-8" d="M379.27,418.08c-11.54,4.83-33.95-5.86-30.04-20.43,10.75-15.11,32.18,3.18,30.04,20.43Z"/>
    <path class="cls-8" d="M348.92,435.9c9.09-8.32,7.2-32.09-8.46-34.19-18.78,3.72-9.14,29.52,8.46,34.19Z"/>
    <path class="cls-8" d="M358.39,418.67c-12.48,1.69-31.02-14.36-23.12-27.39,14.64-11.79,30.08,11.33,23.12,27.39Z"/>
    <path class="cls-8" d="M378.64,402.48c-10.78,6.23-34.46-1.58-32.59-16.52,8.58-16.32,32.34-.86,32.59,16.52Z"/>
    <path class="cls-8" d="M333.56,429.48c9.76-7.59,9.9-31.43-5.53-34.73-19.04,2.26-11.62,28.72,5.53,34.73Z"/>
    <path class="cls-8" d="M369.13,377.88c-4.77,11.1-28.7,18.21-36.53,5.14-3.3-17.98,25.47-18.97,36.53-5.14Z"/>
    <path class="cls-8" d="M310.33,410.63c12.47,1.78,31.14-14.13,23.35-27.21-14.55-11.9-30.18,11.1-23.35,27.21Z"/>
    <path class="cls-8" d="M349.99,405.45c-12.48,1.69-31.02-14.36-23.12-27.39,14.64-11.79,30.08,11.33,23.12,27.39Z"/>
    <g>
      <path class="cls-11" d="M102.64,119.64c1.32-.27,3.41-.46,5.54-.46,3.03,0,4.98.5,6.44,1.62,1.22.86,1.95,2.19,1.95,3.94,0,2.15-1.5,4.04-3.97,4.9v.07c2.23.53,4.84,2.29,4.84,5.6,0,1.92-.8,3.38-1.99,4.47-1.64,1.42-4.29,2.09-8.12,2.09-2.09,0-3.69-.13-4.7-.27v-21.97ZM105.67,128.79h2.75c3.2,0,5.09-1.59,5.09-3.74,0-2.62-2.09-3.65-5.16-3.65-1.39,0-2.19.1-2.68.2v7.19ZM105.67,139.49c.59.1,1.46.13,2.54.13,3.14,0,6.03-1.09,6.03-4.34,0-3.05-2.75-4.31-6.06-4.31h-2.51v8.52Z"/>
      <path class="cls-11" d="M133.67,131.21h-9.13v8.05h10.17v2.42h-13.2v-22.34h12.68v2.42h-9.65v7.06h9.13v2.39Z"/>
      <path class="cls-11" d="M150.81,131.21h-9.13v8.05h10.17v2.42h-13.2v-22.34h12.68v2.42h-9.65v7.06h9.13v2.39Z"/>
      <path class="cls-11" d="M155.78,119.64c1.53-.3,3.73-.46,5.82-.46,3.24,0,5.33.56,6.79,1.82,1.18.99,1.85,2.52,1.85,4.24,0,2.95-1.95,4.9-4.42,5.7v.1c1.81.6,2.89,2.19,3.45,4.51.77,3.12,1.32,5.27,1.81,6.13h-3.13c-.38-.63-.91-2.55-1.57-5.34-.7-3.08-1.95-4.24-4.7-4.34h-2.86v9.68h-3.03v-22.04ZM158.81,129.82h3.1c3.24,0,5.3-1.69,5.3-4.24,0-2.88-2.2-4.14-5.4-4.18-1.46,0-2.51.13-3,.27v8.15Z"/>
    </g>
    <g>
      <path class="cls-11" d="M364.95,119.45c1.32-.27,3.41-.46,5.54-.46,3.03,0,4.98.5,6.44,1.62,1.22.86,1.95,2.19,1.95,3.94,0,2.15-1.5,4.04-3.97,4.9v.07c2.23.53,4.84,2.29,4.84,5.6,0,1.92-.8,3.38-1.99,4.47-1.64,1.42-4.28,2.09-8.12,2.09-2.09,0-3.69-.13-4.7-.27v-21.97ZM367.97,128.59h2.75c3.21,0,5.09-1.59,5.09-3.74,0-2.62-2.09-3.65-5.16-3.65-1.39,0-2.19.1-2.68.2v7.19ZM367.97,139.3c.59.1,1.46.13,2.54.13,3.13,0,6.03-1.09,6.03-4.34,0-3.05-2.75-4.31-6.06-4.31h-2.51v8.52Z"/>
      <path class="cls-11" d="M387.62,134.46l-2.44,7.03h-3.13l7.98-22.34h3.66l8.01,22.34h-3.24l-2.51-7.03h-8.33ZM395.32,132.2l-2.3-6.43c-.52-1.46-.87-2.78-1.22-4.08h-.07c-.35,1.32-.73,2.68-1.19,4.04l-2.3,6.46h7.07Z"/>
      <path class="cls-11" d="M405.13,119.45c1.53-.3,3.73-.46,5.82-.46,3.24,0,5.33.56,6.79,1.82,1.18.99,1.85,2.52,1.85,4.24,0,2.95-1.95,4.9-4.43,5.7v.1c1.81.6,2.89,2.19,3.45,4.51.77,3.12,1.32,5.27,1.81,6.13h-3.14c-.38-.63-.91-2.55-1.57-5.34-.7-3.08-1.95-4.24-4.7-4.34h-2.86v9.68h-3.03v-22.04ZM408.16,129.62h3.1c3.24,0,5.3-1.69,5.3-4.24,0-2.88-2.2-4.14-5.4-4.18-1.46,0-2.51.13-3,.27v8.15Z"/>
    </g>
    <g>
      <path class="cls-4" d="M228.33,239.98h-10.12l.28-1.47c.49-.26,1-.48,1.54-.68s1.08-.34,1.62-.44l16.09-24.92h2.97l4.59,24.92c.51.1,1.02.26,1.52.46.5.21.93.42,1.28.65l-.33,1.47h-12.51l.28-1.47c.57-.26,1.17-.48,1.81-.68s1.24-.34,1.81-.44l-.98-6.15h-8.98l-3.86,6.15c.57.08,1.14.21,1.71.4s1.08.43,1.54.72l-.29,1.47ZM241.3,210.46l-1.38.73-9.59-3.71v-.78c.08-.23.37-.44.87-.64s1.07-.36,1.71-.5,1.26-.24,1.87-.31c.61-.06,1.06-.06,1.36.02l5.16,5.18ZM230.61,228.74h7.27l-1.14-7.38v-3.32h-.08l-1.54,3.4-4.51,7.3Z"/>
      <path class="cls-4" d="M265.43,212.93h13.33l-.33,1.47c-.59.28-1.27.52-2.01.72-.75.19-1.46.33-2.13.41l-4.88,21.95h7.84l4.22-6.92h1.71c0,.59-.04,1.29-.12,2.09-.08.8-.19,1.64-.32,2.51-.14.87-.29,1.74-.47,2.59-.18.85-.36,1.6-.55,2.24h-22.31l.28-1.47c.7-.31,1.35-.55,1.95-.73.6-.18,1.15-.31,1.67-.39l4.88-21.87c-.6-.1-1.17-.24-1.71-.43-.54-.18-1-.41-1.38-.7l.33-1.47Z"/>
      <path class="cls-4" d="M292.16,239.98h-10.12l.29-1.47c.49-.26,1-.48,1.54-.68.54-.19,1.08-.34,1.63-.44l16.09-24.92h2.97l4.59,24.92c.51.1,1.02.26,1.52.46.5.21.93.42,1.28.65l-.33,1.47h-12.52l.29-1.47c.57-.26,1.17-.48,1.81-.68s1.24-.34,1.81-.44l-.97-6.15h-8.98l-3.86,6.15c.57.08,1.14.21,1.7.4.57.19,1.08.43,1.54.72l-.28,1.47ZM294.44,228.74h7.27l-1.14-7.38v-3.32h-.08l-1.54,3.4-4.51,7.3Z"/>
    </g>
    <g>
      <path class="cls-2" d="M125.61,317.04l.3-1.57c.64-.3,1.28-.56,1.95-.78.66-.22,1.3-.36,1.91-.42l5.19-23.43c-.58-.11-1.15-.27-1.73-.48-.58-.21-1.1-.45-1.56-.72l.35-1.57h6.88c1.1,0,2.16-.04,3.18-.12,1.02-.08,2.17-.12,3.44-.12,1.38,0,2.65.1,3.81.31,1.15.21,2.14.52,2.96.95s1.46.99,1.93,1.7c.46.7.69,1.55.69,2.55,0,1.16-.21,2.19-.63,3.1s-1,1.71-1.73,2.4c-.73.69-1.61,1.26-2.62,1.7-1.01.44-2.11.78-3.29,1v.17c.78.05,1.56.19,2.34.41.78.22,1.48.55,2.1.99.62.44,1.13,1,1.51,1.68s.58,1.48.58,2.42c0,1.49-.31,2.85-.93,4.08-.62,1.23-1.54,2.29-2.75,3.19-1.21.9-2.73,1.59-4.54,2.09-1.82.5-3.93.75-6.32.75-.6,0-1.26-.02-1.97-.04-.71-.03-1.42-.05-2.14-.08s-1.41-.06-2.08-.08-1.23-.04-1.69-.04h-5.15ZM139.14,314.59c1.08,0,2.07-.18,2.97-.54s1.67-.86,2.31-1.51,1.14-1.41,1.51-2.28.55-1.81.55-2.84c0-1.52-.52-2.53-1.55-3.02-1.03-.49-2.49-.75-4.35-.75h-2.32l-2.34,10.64c.38.08.78.15,1.22.21.44.05,1.1.08,2.01.08ZM140.25,300.97c.5,0,1-.02,1.51-.06.51-.04.98-.09,1.42-.14,1.75-.64,3.06-1.55,3.93-2.73.87-1.19,1.31-2.57,1.31-4.14,0-1.08-.34-1.91-1.01-2.5-.67-.59-1.77-.89-3.29-.89-.61,0-1.16.01-1.64.04s-.93.07-1.34.12l-2.29,10.31h1.4Z"/>
      <path class="cls-2" d="M157.08,305.77c0-2.54.41-4.92,1.23-7.14.82-2.22,2-4.15,3.55-5.8,1.54-1.64,3.43-2.94,5.67-3.89,2.24-.95,4.77-1.43,7.6-1.43,1.93,0,3.65.27,5.15.81,1.5.54,2.77,1.31,3.81,2.32,1.04,1.01,1.83,2.23,2.36,3.66s.8,3.05.8,4.85c0,2.26-.36,4.49-1.08,6.69-.72,2.19-1.82,4.15-3.29,5.88-1.47,1.73-3.31,3.12-5.52,4.18-2.21,1.07-4.8,1.6-7.77,1.6-1.99,0-3.77-.3-5.33-.89-1.56-.59-2.87-1.42-3.94-2.47-1.07-1.05-1.88-2.29-2.42-3.73-.55-1.43-.82-2.98-.82-4.64ZM164.44,306.56c0,2.76.54,4.82,1.62,6.19,1.08,1.37,2.55,2.05,4.39,2.05,1.65,0,3.06-.51,4.24-1.53,1.18-1.02,2.16-2.33,2.94-3.91.78-1.59,1.35-3.37,1.71-5.34.36-1.97.54-3.91.54-5.82,0-2.46-.44-4.4-1.32-5.84-.88-1.44-2.33-2.15-4.35-2.15-1.13,0-2.14.24-3.05.73-.91.48-1.73,1.14-2.47,1.96-.73.83-1.37,1.79-1.9,2.88-.53,1.09-.97,2.24-1.32,3.46-.35,1.22-.61,2.45-.78,3.71-.17,1.26-.26,2.47-.26,3.62Z"/>
      <path class="cls-2" d="M212.79,288.01h10.69l-.35,1.61c-.66.47-1.34.85-2.04,1.14s-1.37.52-2.03.68l-5.8,26.05h-3.51l-10.74-21.12-1.04-3.19h-.13l-.39,3.31-3.85,17.27c.52.14,1.1.37,1.75.68.65.32,1.18.64,1.58.97l-.3,1.57h-10.65l.3-1.57c1.3-.77,2.64-1.32,4.03-1.66l5.02-22.57c-.49-.19-1.02-.44-1.58-.75-.56-.3-1-.59-1.32-.87l.3-1.57h9.18l8.7,17.23,1.3,3.56h.17l.65-3.55,3.03-13.8c-.64-.22-1.25-.49-1.84-.81s-1.09-.65-1.49-1.01l.35-1.61Z"/>
      <path class="cls-2" d="M245.47,288.01h10.69l-.35,1.61c-.66.47-1.34.85-2.04,1.14s-1.37.52-2.03.68l-5.8,26.05h-3.51l-10.74-21.12-1.04-3.19h-.13l-.39,3.31-3.85,17.27c.52.14,1.1.37,1.75.68.65.32,1.18.64,1.58.97l-.3,1.57h-10.65l.3-1.57c1.3-.77,2.64-1.32,4.03-1.66l5.02-22.57c-.49-.19-1.02-.44-1.58-.75-.56-.3-1-.59-1.32-.87l.3-1.57h9.18l8.7,17.23,1.3,3.56h.17l.65-3.55,3.03-13.8c-.64-.22-1.25-.49-1.84-.81s-1.09-.65-1.49-1.01l.35-1.61Z"/>
      <path class="cls-2" d="M280.53,288.01c-.29,1.24-.65,2.53-1.08,3.85-.43,1.32-.91,2.57-1.43,3.73h-1.82l-.91-4.88h-8.1l-2.25,10.14h5.32l2.6-3.19h1.34c-.14,1.35-.4,2.85-.76,4.51-.36,1.66-.77,3.2-1.23,4.64h-1.38l-1.17-3.27h-5.32l-2.34,10.77h8.4l3.46-5.26h1.82c0,.5-.02,1.08-.07,1.74-.04.66-.1,1.35-.17,2.07s-.17,1.44-.28,2.15c-.12.72-.25,1.38-.39,1.99h-23.42l.3-1.57c.58-.25,1.19-.48,1.84-.71.65-.22,1.32-.39,2.01-.49l5.19-23.43c-.58-.11-1.15-.27-1.73-.48-.58-.21-1.1-.45-1.56-.72l.35-1.57h22.77Z"/>
      <path class="cls-2" d="M289.1,317.04l.3-1.57c.64-.3,1.29-.56,1.95-.78.66-.22,1.3-.36,1.9-.42l5.2-23.43c-.58-.11-1.16-.27-1.73-.48-.58-.21-1.1-.45-1.56-.72l.35-1.57h6.88c1.1,0,2.16-.04,3.18-.12,1.02-.08,2.17-.12,3.44-.12,1.38,0,2.66.1,3.81.31,1.15.21,2.14.52,2.97.95.82.43,1.46.99,1.92,1.7.46.7.69,1.55.69,2.55,0,1.16-.21,2.19-.63,3.1-.42.91-1,1.71-1.73,2.4-.74.69-1.61,1.26-2.62,1.7-1.01.44-2.11.78-3.29,1v.17c.78.05,1.56.19,2.34.41s1.48.55,2.1.99c.62.44,1.13,1,1.51,1.68s.59,1.48.59,2.42c0,1.49-.31,2.85-.93,4.08-.62,1.23-1.54,2.29-2.75,3.19-1.21.9-2.73,1.59-4.54,2.09-1.82.5-3.93.75-6.32.75-.61,0-1.26-.02-1.97-.04-.71-.03-1.42-.05-2.14-.08s-1.42-.06-2.08-.08c-.67-.03-1.23-.04-1.69-.04h-5.15ZM302.63,314.59c1.08,0,2.06-.18,2.97-.54s1.67-.86,2.31-1.51,1.14-1.41,1.51-2.28c.37-.87.55-1.81.55-2.84,0-1.52-.52-2.53-1.55-3.02-1.03-.49-2.49-.75-4.35-.75h-2.32l-2.34,10.64c.38.08.79.15,1.22.21.44.05,1.11.08,2.01.08ZM303.74,300.97c.49,0,1-.02,1.51-.06.51-.04.98-.09,1.42-.14,1.75-.64,3.06-1.55,3.93-2.73s1.31-2.57,1.31-4.14c0-1.08-.34-1.91-1.01-2.5-.67-.59-1.77-.89-3.29-.89-.62,0-1.16.01-1.64.04s-.93.07-1.34.12l-2.29,10.31h1.4Z"/>
      <path class="cls-2" d="M330.92,316.99h-13.5l.3-1.57c1.35-.61,2.62-1.01,3.81-1.2l5.2-23.43c-.58-.08-1.15-.23-1.71-.44-.56-.21-1.07-.46-1.54-.76l.35-1.57h13.5l-.35,1.57c-.58.3-1.2.56-1.88.76-.68.21-1.31.35-1.88.44l-5.2,23.43c.55.11,1.11.26,1.69.46.58.19,1.08.44,1.51.75l-.3,1.57Z"/>
      <path class="cls-2" d="M362.13,288.01c-.29,1.24-.65,2.53-1.08,3.85-.43,1.32-.91,2.57-1.43,3.73h-1.82l-.91-4.88h-8.1l-2.25,10.14h5.32l2.6-3.19h1.34c-.14,1.35-.4,2.85-.76,4.51-.36,1.66-.77,3.2-1.23,4.64h-1.38l-1.17-3.27h-5.32l-2.34,10.77h8.4l3.46-5.26h1.82c0,.5-.02,1.08-.07,1.74-.04.66-.1,1.35-.17,2.07s-.17,1.44-.28,2.15c-.12.72-.25,1.38-.39,1.99h-23.42l.3-1.57c.58-.25,1.19-.48,1.84-.71.65-.22,1.32-.39,2.01-.49l5.2-23.43c-.58-.11-1.16-.27-1.73-.48-.58-.21-1.1-.45-1.56-.72l.35-1.57h22.77ZM354.99,285.36l-1.47.79-10.22-3.98v-.83c.08-.25.4-.48.93-.68.53-.21,1.14-.39,1.82-.54.68-.15,1.34-.26,1.99-.33.65-.07,1.13-.06,1.45.02l5.5,5.55Z"/>
      <path class="cls-2" d="M369.66,314.22c.61.16,1.15.35,1.64.56.49.21.94.42,1.34.64l-.3,1.57h-13.33l.3-1.57c.72-.33,1.39-.59,2.01-.77.62-.18,1.23-.33,1.84-.43l5.2-23.43c-1.42-.3-2.51-.71-3.29-1.2l.35-1.57h4.59c.58,0,1.23-.01,1.97-.04.74-.03,1.51-.06,2.31-.1s1.63-.08,2.47-.12c.84-.04,1.63-.06,2.38-.06,3.2,0,5.58.59,7.12,1.78,1.54,1.19,2.32,2.87,2.32,5.05,0,1.02-.17,2.01-.52,2.96-.35.95-.86,1.83-1.54,2.65s-1.51,1.53-2.51,2.15c-1,.62-2.16,1.11-3.48,1.47.75,1.74,1.68,3.51,2.79,5.3,1.11,1.8,2.2,3.53,3.27,5.22l1.82,1.32-.3,1.41h-6.88l-1.6-1.37c-.98-1.52-1.88-3.28-2.71-5.28-.82-2-1.42-3.97-1.8-5.9h-3.29l-2.16,9.77ZM377.15,290.37c-.46,0-.88.03-1.26.08s-.72.11-1.04.16l-2.56,11.47h2.51c1.18,0,2.21-.21,3.1-.64.88-.43,1.61-1,2.19-1.73.58-.72,1.01-1.55,1.3-2.49s.43-1.92.43-2.96c.03-1.4-.34-2.4-1.1-3-.77-.6-1.96-.91-3.57-.91Z"/>
      <path class="cls-2" d="M418.14,288.01c-.29,1.24-.65,2.53-1.08,3.85-.43,1.32-.91,2.57-1.43,3.73h-1.82l-.91-4.88h-8.1l-2.25,10.14h5.32l2.6-3.19h1.34c-.14,1.35-.4,2.85-.76,4.51-.36,1.66-.77,3.2-1.23,4.64h-1.38l-1.17-3.27h-5.32l-2.34,10.77h8.4l3.46-5.26h1.82c0,.5-.02,1.08-.07,1.74-.04.66-.1,1.35-.17,2.07s-.17,1.44-.28,2.15c-.12.72-.25,1.38-.39,1.99h-23.42l.3-1.57c.58-.25,1.19-.48,1.84-.71.65-.22,1.32-.39,2.01-.49l5.2-23.43c-.58-.11-1.16-.27-1.73-.48-.58-.21-1.1-.45-1.56-.72l.35-1.57h22.77Z"/>
    </g>
  </g>
  <path class="cls-9" d="M262.76,15.31C119.3,15.31,3,118.37,3,245.5"/>
  <path class="cls-9" d="M522.52,245.5c0-127.13-116.3-230.2-259.76-230.2"/>
  <path class="cls-9" d="M262.76,475.7c143.46,0,259.76-103.06,259.76-230.2"/>
  <path class="cls-9" d="M3,245.5c0,127.13,116.3,230.2,259.76,230.2"/>
  <path class="cls-8" d="M83.72,111.88h108.34c2.23,0,4.04,1.81,4.04,4.04v32.85c0,2.22-1.81,4.03-4.03,4.03h-108.34c-2.22,0-4.03-1.81-4.03-4.03v-32.85c0-2.22,1.81-4.03,4.03-4.03Z"/>
  <path class="cls-5" d="M98.22,257.99h341.56c2.23,0,4.04,1.81,4.04,4.04v88.14c0,2.22-1.81,4.03-4.03,4.03H98.22c-2.22,0-4.03-1.81-4.03-4.03v-88.15c0-2.22,1.81-4.03,4.03-4.03Z"/>
  <path class="cls-11" d="M295.72,67.94c1.2-.73,5.05-2.28,5.53-9.6.15-2.27.11.35,0,0-1.42-4.31-1.83-14.04-4.1-15.39-1.93-1.15-3.94-2.31-6.17-1.84-.6.13-.7.26-2.73,1.32-3.33,1.73-5.02,2.59-5.93,2.34-1.42-.39-1.07-1.86-2.97-4.16-.47-.57-2.92-3.43-7.01-4.16-.71-.13-3.21-.55-5.93.52-3.68,1.44-3.68,4-5.93,4.16-2.91.22-3.65-3.99-7.82-4.68-3.22-.53-5.96,1.45-6.47,1.82-2.78,2.01-3.56,4.95-3.78,5.99-.72,3.5.89,5.79-.29,6.63-.82.58-1.95-.27-3.76-.65-3.87-.81-3.74.19-5.57,2.6-2.67,3.51-6.02,11.52.2,16.58l62.74-1.48Z"/>
  <path class="cls-7" d="M297.34,64c13.33,24.54,12.82,41.06,9.59,51.82-1.85,6.18-6.24,14.66-6.91,28.15-.29,5.78-.61,12.33,1.7,20.51,2.7,9.53,6.26,11.66,4.83,15.1-2.46,5.92-15.66,6.07-34.07,5.89-20.84-.2-35.64-.48-37.93-6.81-1.5-4.15,3.82-6.9,5.44-17.54.66-4.33.44-8.19-.65-14.5-2.97-17.15-7-21.41-9.07-32.06-4.36-22.42,5.42-44.98,5.57-44.97,0,0,0,.09.02.09.09,0,.39-2.65.55-3.24,1.2-4.38,24.97-2.87,27.38-2.72,7.88.49,19.31.9,33.55.28Z"/>
  <path class="cls-1" d="M262.76,15.31c142.42,0,257.87,103.06,257.87,230.2"/>
  <path class="cls-1" d="M4.89,245.5C4.89,118.37,120.34,15.31,262.76,15.31"/>
  <path class="cls-1" d="M262.76,475.7C120.34,475.7,4.89,372.64,4.89,245.5"/>
  <path class="cls-1" d="M520.63,245.5c0,127.13-115.45,230.2-257.87,230.2"/>
  <path class="cls-11" d="M297.09,75.48c-4.21,3.06-10.94-3.41-18.98-.99-9.42,2.84-7.28,13.88-19.88,20.82-3.08,1.69-9.35,5.15-13.7,3.11-7.09-3.31-12.77-22.94-12.84-22.94,0,0-.03,0-.05-.02-.01-.01-.02-.03-.02-.05v-14.74s.03-.07.08-.07h65.4s.08.03.08.07c1.79,5.12,3.53,12.19-.08,14.81Z"/>
  <path class="cls-6" d="M231.84,67.65c4.19,1.41,9.52,2.84,15.82,3.7,7.34,1,13.75.93,18.68.55,4.74-.69,9.54-1.42,14.37-2.19,6.17-.98,12.25-1.99,18.24-3.03"/>
  <path class="cls-10" d="M284.49,85.02c1.26-.66,3.29-1.46,5.39-.97,3.9.92,5.46,5.74,6.81,9.93.51,1.59,1.57,5.29,1.63,11.6.04,4.22-.37,7.73-.91,10.99-1.39,8.25-3.04,11.88-4.53,17.64-3.24,12.52-6.66,25.73-.69,36.82,1.37,2.54,3.84,6.21,2.35,8.18-1.34,1.77-5.47,2.15-8.15.67-.02-.01-.16-.09-.31-.19-4.84-3.18-6.28-13.9-6.28-13.9-.91-6.8-.6-12.02-.54-12.83.17-2.63.58-6.75,2.72-16.04,3.26-14.14,5.21-17.08,5.58-25.16.21-4.63-.21-8.44-.59-10.91"/>
  <path class="cls-8" d="M339.51,111.88h108.34c2.23,0,4.04,1.81,4.04,4.04v32.85c0,2.22-1.81,4.03-4.03,4.03h-108.34c-2.22,0-4.03-1.81-4.03-4.03v-32.85c0-2.22,1.81-4.03,4.03-4.03Z"/>
  <g>
    <path class="cls-5" d="M425.83,224.82c-5.68,9.07-3.29,32.58,7.27,33.31,12.37-5.34,4.71-30.19-7.27-33.31Z"/>
    <path class="cls-5" d="M434.44,203.99c-5.68,9.07-3.29,32.58,7.27,33.31,12.37-5.34,4.71-30.19-7.27-33.31Z"/>
    <path class="cls-5" d="M442.63,182.58c-5.68,9.07-3.29,32.58,7.27,33.31,12.37-5.34,4.71-30.19-7.27-33.31Z"/>
    <path class="cls-5" d="M471.51,167.05c-9.62,4.51-20.97,25.95-12.99,32.59,12.84,2.5,20.75-23.1,12.99-32.59Z"/>
    <path class="cls-5" d="M467.75,240.57c-2.32,10.36-20.98,25.94-29.32,19.51-5.33-12.05,18.21-25.13,29.32-19.51Z"/>
    <path class="cls-5" d="M476.27,219.7c-2.32,10.36-20.98,25.94-29.32,19.51-5.33-12.05,18.21-25.13,29.32-19.51Z"/>
    <path class="cls-5" d="M484.47,198.28c-2.32,10.36-20.98,25.94-29.32,19.51-5.33-12.05,18.21-25.13,29.32-19.51Z"/>
  </g>
  <g>
    <path class="cls-5" d="M68.47,241.36c2.48,10.29,21.27,25.73,29.43,19.32,5.08-11.99-18.51-24.93-29.43-19.32Z"/>
    <path class="cls-5" d="M59.58,220.64c2.48,10.29,21.27,25.73,29.43,19.32,5.08-11.99-18.51-24.93-29.43-19.32Z"/>
    <path class="cls-5" d="M49.96,199.77c2.48,10.29,21.27,25.73,29.43,19.32,5.08-11.99-18.51-24.93-29.43-19.32Z"/>
    <path class="cls-5" d="M59.58,169.58c-3.69,9.58,3.67,32.54,14.26,32.11,11.1-6.62-1.76-30.34-14.26-32.11Z"/>
    <path class="cls-5" d="M110.23,225.23c5.85,9.02,3.66,32.55-7.05,33.37-12.6-5.22-5.07-30.14,7.05-33.37Z"/>
    <path class="cls-5" d="M101.24,204.53c5.85,9.02,3.66,32.55-7.05,33.37-12.6-5.22-5.07-30.14,7.05-33.37Z"/>
    <path class="cls-5" d="M91.62,183.66c5.85,9.02,3.66,32.55-7.05,33.37-12.6-5.22-5.07-30.14,7.05-33.37Z"/>
  </g>
  <path class="cls-8" d="M260.42,380.05c2.23-6.22,2.72-11.36,2.7-15.11-.02-4.08-.67-7.89,1.35-9,1.28-.7,3.43-.22,4.73.96,1.39,1.27,2.14,3.66-1.31,18.19-.69,2.91-1.31,5.29-1.73,6.89l-5.75-1.93Z"/>
  <path class="cls-8" d="M266.53,449.39c-11.6-4.69-18.75-27.55-4.9-34.81,18.94-2.89,19.6,24.49,4.9,34.81"/>
  <path class="cls-8" d="M283.66,438.39c-12.51-1.54-25.88-21.71-14.61-32.26,17.42-7.65,25.82,18.54,14.61,32.26Z"/>
  <path class="cls-8" d="M247.99,438.73c12.3-2.65,23.61-23.93,11.34-33.43-18.1-6.05-23.87,20.78-11.34,33.43Z"/>
  <path class="cls-8" d="M265.46,428.64c-11.6-4.69-18.75-27.55-4.9-34.81,18.94-2.89,19.6,24.49,4.9,34.81Z"/>
  <path class="cls-8" d="M291.6,424.73c-12.61.03-28.64-18.3-18.92-30.16,16.21-9.76,28.15,15.17,18.92,30.16Z"/>
  <path class="cls-8" d="M238.33,425.68c12.48-1.7,25.56-22.04,14.14-32.44-17.53-7.42-25.55,18.88-14.14,32.44Z"/>
  <path class="cls-8" d="M296.83,399c-10.12,7.16-34.47,1.48-34.07-13.56,6.94-17.01,32.12-3.72,34.07,13.56Z"/>
  <path class="cls-8" d="M228.69,398.12c9.71,7.66,34.34,3.21,34.78-11.82-5.98-17.34-31.87-5.33-34.78,11.82Z"/>
  <path class="cls-8" d="M265.46,413.19c-11.6-4.69-18.75-27.55-4.9-34.81,18.94-2.89,19.6,24.49,4.9,34.81Z"/>
  <path class="cls-8" d="M195.71,373.47c5.06-4.47,8.06-8.77,9.91-12.09,2.01-3.6,3.35-7.25,5.68-7.32,1.47-.04,3.13,1.36,3.69,2.98.6,1.75.06,4.19-10.22,15.43-2.06,2.25-3.79,4.07-4.96,5.28l-4.1-4.29Z"/>
  <path class="cls-8" d="M166.53,437.28c-7.88-9.36-2.78-32.71,13.03-32.86,18.12,5.99,5.05,30.4-13.03,32.86Z"/>
  <path class="cls-8" d="M187.09,435.32c-10.25-6.99-11.97-30.78,3.21-34.99,19.15,1.11,13.5,27.97-3.21,34.99Z"/>
  <path class="cls-8" d="M155.52,419.53c12.15,3.21,32.71-10.43,26.64-24.32-12.92-13.49-31.37,7.54-26.64,24.32Z"/>
  <path class="cls-8" d="M175.93,418.53c-7.88-9.36-2.78-32.71,13.03-32.86,18.12,5.99,5.05,30.4-13.03,32.86Z"/>
  <path class="cls-8" d="M200.89,426.87c-11.12-5.65-16.1-29.02-1.63-35.09,19.14-1.28,17.23,26.05,1.63,35.09Z"/>
  <path class="cls-8" d="M153.51,403.69c11.84,4.13,33.49-7.89,28.62-22.19-11.73-14.44-31.91,5.1-28.62,22.19Z"/>
  <path class="cls-8" d="M218.32,406.57c-12.48,1.74-31.09-14.24-23.24-27.29,14.59-11.85,30.14,11.2,23.24,27.29Z"/>
  <path class="cls-8" d="M158.76,375.08c4.73,11.12,28.63,18.31,36.51,5.27,3.37-17.96-25.4-19.06-36.51-5.27Z"/>
  <path class="cls-8" d="M183.63,404.93c-7.88-9.36-2.78-32.71,13.03-32.86,18.12,5.99,5.05,30.4-13.03,32.86Z"/>
  <path class="cls-8" d="M327.67,379.56c-1.47-6.42-3.84-11.06-5.9-14.26-2.24-3.48-4.86-6.43-3.73-8.37.71-1.23,2.82-1.87,4.58-1.5,1.88.4,3.82,2.08,8.77,16.21.99,2.83,1.75,5.17,2.26,6.75l-5.97,1.17Z"/>
  <path class="cls-8" d="M370.58,435.91c-12.48,1.69-31.02-14.36-23.12-27.39,14.64-11.79,30.08,11.33,23.12,27.39Z"/>
  <path class="cls-8" d="M379.27,418.08c-11.54,4.83-33.95-5.86-30.04-20.43,10.75-15.11,32.18,3.18,30.04,20.43Z"/>
  <path class="cls-8" d="M348.92,435.9c9.09-8.32,7.2-32.09-8.46-34.19-18.78,3.72-9.14,29.52,8.46,34.19Z"/>
  <path class="cls-8" d="M358.39,418.67c-12.48,1.69-31.02-14.36-23.12-27.39,14.64-11.79,30.08,11.33,23.12,27.39Z"/>
  <path class="cls-8" d="M378.64,402.48c-10.78,6.23-34.46-1.58-32.59-16.52,8.58-16.32,32.34-.86,32.59,16.52Z"/>
  <path class="cls-8" d="M333.56,429.48c9.76-7.59,9.9-31.43-5.53-34.73-19.04,2.26-11.62,28.72,5.53,34.73Z"/>
  <path class="cls-8" d="M369.13,377.88c-4.77,11.1-28.7,18.21-36.53,5.14-3.3-17.98,25.47-18.97,36.53-5.14Z"/>
  <path class="cls-8" d="M310.33,410.63c12.47,1.78,31.14-14.13,23.35-27.21-14.55-11.9-30.18,11.1-23.35,27.21Z"/>
  <path class="cls-8" d="M349.99,405.45c-12.48,1.69-31.02-14.36-23.12-27.39,14.64-11.79,30.08,11.33,23.12,27.39Z"/>
  <g>
    <path class="cls-11" d="M102.64,119.64c1.32-.27,3.41-.46,5.54-.46,3.03,0,4.98.5,6.44,1.62,1.22.86,1.95,2.19,1.95,3.94,0,2.15-1.5,4.04-3.97,4.9v.07c2.23.53,4.84,2.29,4.84,5.6,0,1.92-.8,3.38-1.99,4.47-1.64,1.42-4.29,2.09-8.12,2.09-2.09,0-3.69-.13-4.7-.27v-21.97ZM105.67,128.79h2.75c3.2,0,5.09-1.59,5.09-3.74,0-2.62-2.09-3.65-5.16-3.65-1.39,0-2.19.1-2.68.2v7.19ZM105.67,139.49c.59.1,1.46.13,2.54.13,3.14,0,6.03-1.09,6.03-4.34,0-3.05-2.75-4.31-6.06-4.31h-2.51v8.52Z"/>
    <path class="cls-11" d="M133.67,131.21h-9.13v8.05h10.17v2.42h-13.2v-22.34h12.68v2.42h-9.65v7.06h9.13v2.39Z"/>
    <path class="cls-11" d="M150.81,131.21h-9.13v8.05h10.17v2.42h-13.2v-22.34h12.68v2.42h-9.65v7.06h9.13v2.39Z"/>
    <path class="cls-11" d="M155.78,119.64c1.53-.3,3.73-.46,5.82-.46,3.24,0,5.33.56,6.79,1.82,1.18.99,1.85,2.52,1.85,4.24,0,2.95-1.95,4.9-4.42,5.7v.1c1.81.6,2.89,2.19,3.45,4.51.77,3.12,1.32,5.27,1.81,6.13h-3.13c-.38-.63-.91-2.55-1.57-5.34-.7-3.08-1.95-4.24-4.7-4.34h-2.86v9.68h-3.03v-22.04ZM158.81,129.82h3.1c3.24,0,5.3-1.69,5.3-4.24,0-2.88-2.2-4.14-5.4-4.18-1.46,0-2.51.13-3,.27v8.15Z"/>
  </g>
  <g>
    <path class="cls-11" d="M364.95,119.45c1.32-.27,3.41-.46,5.54-.46,3.03,0,4.98.5,6.44,1.62,1.22.86,1.95,2.19,1.95,3.94,0,2.15-1.5,4.04-3.97,4.9v.07c2.23.53,4.84,2.29,4.84,5.6,0,1.92-.8,3.38-1.99,4.47-1.64,1.42-4.28,2.09-8.12,2.09-2.09,0-3.69-.13-4.7-.27v-21.97ZM367.97,128.59h2.75c3.21,0,5.09-1.59,5.09-3.74,0-2.62-2.09-3.65-5.16-3.65-1.39,0-2.19.1-2.68.2v7.19ZM367.97,139.3c.59.1,1.46.13,2.54.13,3.13,0,6.03-1.09,6.03-4.34,0-3.05-2.75-4.31-6.06-4.31h-2.51v8.52Z"/>
    <path class="cls-11" d="M387.62,134.46l-2.44,7.03h-3.13l7.98-22.34h3.66l8.01,22.34h-3.24l-2.51-7.03h-8.33ZM395.32,132.2l-2.3-6.43c-.52-1.46-.87-2.78-1.22-4.08h-.07c-.35,1.32-.73,2.68-1.19,4.04l-2.3,6.46h7.07Z"/>
    <path class="cls-11" d="M405.13,119.45c1.53-.3,3.73-.46,5.82-.46,3.24,0,5.33.56,6.79,1.82,1.18.99,1.85,2.52,1.85,4.24,0,2.95-1.95,4.9-4.43,5.7v.1c1.81.6,2.89,2.19,3.45,4.51.77,3.12,1.32,5.27,1.81,6.13h-3.14c-.38-.63-.91-2.55-1.57-5.34-.7-3.08-1.95-4.24-4.7-4.34h-2.86v9.68h-3.03v-22.04ZM408.16,129.62h3.1c3.24,0,5.3-1.69,5.3-4.24,0-2.88-2.2-4.14-5.4-4.18-1.46,0-2.51.13-3,.27v8.15Z"/>
  </g>
  <g>
    <path class="cls-4" d="M228.33,239.98h-10.12l.28-1.47c.49-.26,1-.48,1.54-.68s1.08-.34,1.62-.44l16.09-24.92h2.97l4.59,24.92c.51.1,1.02.26,1.52.46.5.21.93.42,1.28.65l-.33,1.47h-12.51l.28-1.47c.57-.26,1.17-.48,1.81-.68s1.24-.34,1.81-.44l-.98-6.15h-8.98l-3.86,6.15c.57.08,1.14.21,1.71.4s1.08.43,1.54.72l-.29,1.47ZM241.3,210.46l-1.38.73-9.59-3.71v-.78c.08-.23.37-.44.87-.64s1.07-.36,1.71-.5,1.26-.24,1.87-.31c.61-.06,1.06-.06,1.36.02l5.16,5.18ZM230.61,228.74h7.27l-1.14-7.38v-3.32h-.08l-1.54,3.4-4.51,7.3Z"/>
    <path class="cls-4" d="M265.43,212.93h13.33l-.33,1.47c-.59.28-1.27.52-2.01.72-.75.19-1.46.33-2.13.41l-4.88,21.95h7.84l4.22-6.92h1.71c0,.59-.04,1.29-.12,2.09-.08.8-.19,1.64-.32,2.51-.14.87-.29,1.74-.47,2.59-.18.85-.36,1.6-.55,2.24h-22.31l.28-1.47c.7-.31,1.35-.55,1.95-.73.6-.18,1.15-.31,1.67-.39l4.88-21.87c-.6-.1-1.17-.24-1.71-.43-.54-.18-1-.41-1.38-.7l.33-1.47Z"/>
    <path class="cls-4" d="M292.16,239.98h-10.12l.29-1.47c.49-.26,1-.48,1.54-.68.54-.19,1.08-.34,1.63-.44l16.09-24.92h2.97l4.59,24.92c.51.1,1.02.26,1.52.46.5.21.93.42,1.28.65l-.33,1.47h-12.52l.29-1.47c.57-.26,1.17-.48,1.81-.68s1.24-.34,1.81-.44l-.97-6.15h-8.98l-3.86,6.15c.57.08,1.14.21,1.7.4.57.19,1.08.43,1.54.72l-.28,1.47ZM294.44,228.74h7.27l-1.14-7.38v-3.32h-.08l-1.54,3.4-4.51,7.3Z"/>
  </g>
  <g>
    <path class="cls-2" d="M125.61,317.04l.3-1.57c.64-.3,1.28-.56,1.95-.78.66-.22,1.3-.36,1.91-.42l5.19-23.43c-.58-.11-1.15-.27-1.73-.48-.58-.21-1.1-.45-1.56-.72l.35-1.57h6.88c1.1,0,2.16-.04,3.18-.12,1.02-.08,2.17-.12,3.44-.12,1.38,0,2.65.1,3.81.31,1.15.21,2.14.52,2.96.95s1.46.99,1.93,1.7c.46.7.69,1.55.69,2.55,0,1.16-.21,2.19-.63,3.1s-1,1.71-1.73,2.4c-.73.69-1.61,1.26-2.62,1.7-1.01.44-2.11.78-3.29,1v.17c.78.05,1.56.19,2.34.41.78.22,1.48.55,2.1.99.62.44,1.13,1,1.51,1.68s.58,1.48.58,2.42c0,1.49-.31,2.85-.93,4.08-.62,1.23-1.54,2.29-2.75,3.19-1.21.9-2.73,1.59-4.54,2.09-1.82.5-3.93.75-6.32.75-.6,0-1.26-.02-1.97-.04-.71-.03-1.42-.05-2.14-.08s-1.41-.06-2.08-.08-1.23-.04-1.69-.04h-5.15ZM139.14,314.59c1.08,0,2.07-.18,2.97-.54s1.67-.86,2.31-1.51,1.14-1.41,1.51-2.28.55-1.81.55-2.84c0-1.52-.52-2.53-1.55-3.02-1.03-.49-2.49-.75-4.35-.75h-2.32l-2.34,10.64c.38.08.78.15,1.22.21.44.05,1.1.08,2.01.08ZM140.25,300.97c.5,0,1-.02,1.51-.06.51-.04.98-.09,1.42-.14,1.75-.64,3.06-1.55,3.93-2.73.87-1.19,1.31-2.57,1.31-4.14,0-1.08-.34-1.91-1.01-2.5-.67-.59-1.77-.89-3.29-.89-.61,0-1.16.01-1.64.04s-.93.07-1.34.12l-2.29,10.31h1.4Z"/>
    <path class="cls-2" d="M157.08,305.77c0-2.54.41-4.92,1.23-7.14.82-2.22,2-4.15,3.55-5.8,1.54-1.64,3.43-2.94,5.67-3.89,2.24-.95,4.77-1.43,7.6-1.43,1.93,0,3.65.27,5.15.81,1.5.54,2.77,1.31,3.81,2.32,1.04,1.01,1.83,2.23,2.36,3.66s.8,3.05.8,4.85c0,2.26-.36,4.49-1.08,6.69-.72,2.19-1.82,4.15-3.29,5.88-1.47,1.73-3.31,3.12-5.52,4.18-2.21,1.07-4.8,1.6-7.77,1.6-1.99,0-3.77-.3-5.33-.89-1.56-.59-2.87-1.42-3.94-2.47-1.07-1.05-1.88-2.29-2.42-3.73-.55-1.43-.82-2.98-.82-4.64ZM164.44,306.56c0,2.76.54,4.82,1.62,6.19,1.08,1.37,2.55,2.05,4.39,2.05,1.65,0,3.06-.51,4.24-1.53,1.18-1.02,2.16-2.33,2.94-3.91.78-1.59,1.35-3.37,1.71-5.34.36-1.97.54-3.91.54-5.82,0-2.46-.44-4.4-1.32-5.84-.88-1.44-2.33-2.15-4.35-2.15-1.13,0-2.14.24-3.05.73-.91.48-1.73,1.14-2.47,1.96-.73.83-1.37,1.79-1.9,2.88-.53,1.09-.97,2.24-1.32,3.46-.35,1.22-.61,2.45-.78,3.71-.17,1.26-.26,2.47-.26,3.62Z"/>
    <path class="cls-2" d="M212.79,288.01h10.69l-.35,1.61c-.66.47-1.34.85-2.04,1.14s-1.37.52-2.03.68l-5.8,26.05h-3.51l-10.74-21.12-1.04-3.19h-.13l-.39,3.31-3.85,17.27c.52.14,1.1.37,1.75.68.65.32,1.18.64,1.58.97l-.3,1.57h-10.65l.3-1.57c1.3-.77,2.64-1.32,4.03-1.66l5.02-22.57c-.49-.19-1.02-.44-1.58-.75-.56-.3-1-.59-1.32-.87l.3-1.57h9.18l8.7,17.23,1.3,3.56h.17l.65-3.55,3.03-13.8c-.64-.22-1.25-.49-1.84-.81s-1.09-.65-1.49-1.01l.35-1.61Z"/>
    <path class="cls-2" d="M245.47,288.01h10.69l-.35,1.61c-.66.47-1.34.85-2.04,1.14s-1.37.52-2.03.68l-5.8,26.05h-3.51l-10.74-21.12-1.04-3.19h-.13l-.39,3.31-3.85,17.27c.52.14,1.1.37,1.75.68.65.32,1.18.64,1.58.97l-.3,1.57h-10.65l.3-1.57c1.3-.77,2.64-1.32,4.03-1.66l5.02-22.57c-.49-.19-1.02-.44-1.58-.75-.56-.3-1-.59-1.32-.87l.3-1.57h9.18l8.7,17.23,1.3,3.56h.17l.65-3.55,3.03-13.8c-.64-.22-1.25-.49-1.84-.81s-1.09-.65-1.49-1.01l.35-1.61Z"/>
    <path class="cls-2" d="M280.53,288.01c-.29,1.24-.65,2.53-1.08,3.85-.43,1.32-.91,2.57-1.43,3.73h-1.82l-.91-4.88h-8.1l-2.25,10.14h5.32l2.6-3.19h1.34c-.14,1.35-.4,2.85-.76,4.51-.36,1.66-.77,3.2-1.23,4.64h-1.38l-1.17-3.27h-5.32l-2.34,10.77h8.4l3.46-5.26h1.82c0,.5-.02,1.08-.07,1.74-.04.66-.1,1.35-.17,2.07s-.17,1.44-.28,2.15c-.12.72-.25,1.38-.39,1.99h-23.42l.3-1.57c.58-.25,1.19-.48,1.84-.71.65-.22,1.32-.39,2.01-.49l5.19-23.43c-.58-.11-1.15-.27-1.73-.48-.58-.21-1.1-.45-1.56-.72l.35-1.57h22.77Z"/>
    <path class="cls-2" d="M289.1,317.04l.3-1.57c.64-.3,1.29-.56,1.95-.78.66-.22,1.3-.36,1.9-.42l5.2-23.43c-.58-.11-1.16-.27-1.73-.48-.58-.21-1.1-.45-1.56-.72l.35-1.57h6.88c1.1,0,2.16-.04,3.18-.12,1.02-.08,2.17-.12,3.44-.12,1.38,0,2.66.1,3.81.31,1.15.21,2.14.52,2.97.95.82.43,1.46.99,1.92,1.7.46.7.69,1.55.69,2.55,0,1.16-.21,2.19-.63,3.1-.42.91-1,1.71-1.73,2.4-.74.69-1.61,1.26-2.62,1.7-1.01.44-2.11.78-3.29,1v.17c.78.05,1.56.19,2.34.41s1.48.55,2.1.99c.62.44,1.13,1,1.51,1.68s.59,1.48.59,2.42c0,1.49-.31,2.85-.93,4.08-.62,1.23-1.54,2.29-2.75,3.19-1.21.9-2.73,1.59-4.54,2.09-1.82.5-3.93.75-6.32.75-.61,0-1.26-.02-1.97-.04-.71-.03-1.42-.05-2.14-.08s-1.42-.06-2.08-.08c-.67-.03-1.23-.04-1.69-.04h-5.15ZM302.63,314.59c1.08,0,2.06-.18,2.97-.54s1.67-.86,2.31-1.51,1.14-1.41,1.51-2.28c.37-.87.55-1.81.55-2.84,0-1.52-.52-2.53-1.55-3.02-1.03-.49-2.49-.75-4.35-.75h-2.32l-2.34,10.64c.38.08.79.15,1.22.21.44.05,1.11.08,2.01.08ZM303.74,300.97c.49,0,1-.02,1.51-.06.51-.04.98-.09,1.42-.14,1.75-.64,3.06-1.55,3.93-2.73s1.31-2.57,1.31-4.14c0-1.08-.34-1.91-1.01-2.5-.67-.59-1.77-.89-3.29-.89-.62,0-1.16.01-1.64.04s-.93.07-1.34.12l-2.29,10.31h1.4Z"/>
    <path class="cls-2" d="M330.92,316.99h-13.5l.3-1.57c1.35-.61,2.62-1.01,3.81-1.2l5.2-23.43c-.58-.08-1.15-.23-1.71-.44-.56-.21-1.07-.46-1.54-.76l.35-1.57h13.5l-.35,1.57c-.58.3-1.2.56-1.88.76-.68.21-1.31.35-1.88.44l-5.2,23.43c.55.11,1.11.26,1.69.46.58.19,1.08.44,1.51.75l-.3,1.57Z"/>
    <path class="cls-2" d="M362.13,288.01c-.29,1.24-.65,2.53-1.08,3.85-.43,1.32-.91,2.57-1.43,3.73h-1.82l-.91-4.88h-8.1l-2.25,10.14h5.32l2.6-3.19h1.34c-.14,1.35-.4,2.85-.76,4.51-.36,1.66-.77,3.2-1.23,4.64h-1.38l-1.17-3.27h-5.32l-2.34,10.77h8.4l3.46-5.26h1.82c0,.5-.02,1.08-.07,1.74-.04.66-.1,1.35-.17,2.07s-.17,1.44-.28,2.15c-.12.72-.25,1.38-.39,1.99h-23.42l.3-1.57c.58-.25,1.19-.48,1.84-.71.65-.22,1.32-.39,2.01-.49l5.2-23.43c-.58-.11-1.16-.27-1.73-.48-.58-.21-1.1-.45-1.56-.72l.35-1.57h22.77ZM354.99,285.36l-1.47.79-10.22-3.98v-.83c.08-.25.4-.48.93-.68.53-.21,1.14-.39,1.82-.54.68-.15,1.34-.26,1.99-.33.65-.07,1.13-.06,1.45.02l5.5,5.55Z"/>
    <path class="cls-2" d="M369.66,314.22c.61.16,1.15.35,1.64.56.49.21.94.42,1.34.64l-.3,1.57h-13.33l.3-1.57c.72-.33,1.39-.59,2.01-.77.62-.18,1.23-.33,1.84-.43l5.2-23.43c-1.42-.3-2.51-.71-3.29-1.2l.35-1.57h4.59c.58,0,1.23-.01,1.97-.04.74-.03,1.51-.06,2.31-.1s1.63-.08,2.47-.12c.84-.04,1.63-.06,2.38-.06,3.2,0,5.58.59,7.12,1.78,1.54,1.19,2.32,2.87,2.32,5.05,0,1.02-.17,2.01-.52,2.96-.35.95-.86,1.83-1.54,2.65s-1.51,1.53-2.51,2.15c-1,.62-2.16,1.11-3.48,1.47.75,1.74,1.68,3.51,2.79,5.3,1.11,1.8,2.2,3.53,3.27,5.22l1.82,1.32-.3,1.41h-6.88l-1.6-1.37c-.98-1.52-1.88-3.28-2.71-5.28-.82-2-1.42-3.97-1.8-5.9h-3.29l-2.16,9.77ZM377.15,290.37c-.46,0-.88.03-1.26.08s-.72.11-1.04.16l-2.56,11.47h2.51c1.18,0,2.21-.21,3.1-.64.88-.43,1.61-1,2.19-1.73.58-.72,1.01-1.55,1.3-2.49s.43-1.92.43-2.96c.03-1.4-.34-2.4-1.1-3-.77-.6-1.96-.91-3.57-.91Z"/>
    <path class="cls-2" d="M418.14,288.01c-.29,1.24-.65,2.53-1.08,3.85-.43,1.32-.91,2.57-1.43,3.73h-1.82l-.91-4.88h-8.1l-2.25,10.14h5.32l2.6-3.19h1.34c-.14,1.35-.4,2.85-.76,4.51-.36,1.66-.77,3.2-1.23,4.64h-1.38l-1.17-3.27h-5.32l-2.34,10.77h8.4l3.46-5.26h1.82c0,.5-.02,1.08-.07,1.74-.04.66-.1,1.35-.17,2.07s-.17,1.44-.28,2.15c-.12.72-.25,1.38-.39,1.99h-23.42l.3-1.57c.58-.25,1.19-.48,1.84-.71.65-.22,1.32-.39,2.01-.49l5.2-23.43c-.58-.11-1.16-.27-1.73-.48-.58-.21-1.1-.45-1.56-.72l.35-1.57h22.77Z"/>
  </g>
</svg>